# xmcd
#
# Track frame offsets:
#	151
#	15932
#	33227
#	46757
#	65441
#	77324
#	91758
#	107849
#	124082
#	135153
#
# Disc length: 1984 seconds
#
# Revision: 1
# Processed by: cddbd v1.5.2PL0 Copyright (c) Steve Scherf et al.
# Submitted via: audiograbber 1.83.01
#
DISCID=6407be0a
DTITLE=The Marys - Not a Day Goes By
DYEAR=2003
DGENRE=
TTITLE0=Not A Day Goes By
TTITLE1=Closing Time
TTITLE2=Spend A Little Time
TTITLE3=Rose Coloured Eyes
TTITLE4=Going On Without You 
TTITLE5=Gone Before Goodbye
TTITLE6=Sun Shines Bright
TTITLE7=All Your Troubles
TTITLE8=Can´t Go Wrong
TTITLE9=Tonight
EXTD=
EXTT0=
EXTT1=
EXTT2=
EXTT3=
EXTT4=
EXTT5=
EXTT6=
EXTT7=
EXTT8=
EXTT9=
PLAYORDER=
